<?xml version="1.0" encoding="UTF-8"?>
<svg xmlns="http://www.w3.org/2000/svg" width="150" height="150" viewBox="0 0 150 150">
  <defs>
    <style>
      .cls-1 {
        opacity: .07;
      }

      .cls-2 {
        fill: #fff;
      }

      .cls-3 {
        fill: #fafafa;
      }

      .cls-4 {
        font-family: FontAwesome5Brands-Regular, Font Awesome 5 Brands;
        font-size: 6px;
      }

      .cls-4, .cls-5 {
        fill: #0085ba;
      }

      .cls-6, .cls-5 {
        opacity: .3;
      }
    </style>
  </defs>
  <g id="Layer_1" data-name="Layer 1"/>
  <g id="Layer_2" data-name="Layer 2">
    <g id="Layer_1-2" data-name="Layer 1">
      <g>
        <g class="cls-1">
          <rect width="150" height="150"/>
        </g>
        <rect class="cls-2" x="35" y="20" width="80" height="110"/>
        <rect class="cls-5" x="35" y="20" width="80" height="52.1198"/>
        <g>
          <ellipse class="cls-3" cx="75" cy="42.4581" rx="9.8975" ry="12.7945"/>
          <path class="cls-3" d="M75,56.203c-8.279,0-15.5661,2.5301-19.8222,6.3654,4.6636,5.791,11.8081,9.4998,19.8222,9.4998s15.1587-3.7088,19.8222-9.4998c-4.2561-3.8352-11.5432-6.3654-19.8222-6.3654Z"/>
          <rect class="cls-3" x="70.1138" y="46.6254" width="9.7725" height="16.1576" rx="3.7813" ry="3.7813"/>
          <path class="cls-3" d="M66.4692,43.0517c.5762,1.6593,.3475,3.246-.5107,3.544s-2.0211-.8055-2.5973-2.4648c-.5762-1.6593-.3475-3.2459,.5107-3.544s2.0211,.8055,2.5973,2.4647Z"/>
          <path class="cls-3" d="M83.5308,43.0517c-.5762,1.6593-.3475,3.246,.5107,3.544s2.0211-.8055,2.5973-2.4648c.5762-1.6593,.3475-3.2459-.5107-3.544s-2.0211,.8055-2.5973,2.4647Z"/>
          <path class="cls-3" d="M66.338,42.9979c-1.2863-2.3393-2.6093-4.8215-2.5434-7.4903,.066-2.6688,2.0978-5.4859,4.7657-5.389,.4655,.0169,.9321,.1193,1.3932,.0536,.9228-.1314,1.6063-.8855,2.3549-1.4409,1.688-1.2522,4.0387-1.5494,5.9852-.7566,1.2028,.4899,2.2213,1.347,3.3944,1.9045,2.1859,1.0389,4.8797,.9299,6.9745-.2822-.4369,.822-1.1765,1.4787-2.0445,1.8152,.8004,.2553,1.687,.2307,2.472-.0686-.4732,.857-1.2558,1.5388-2.1696,1.89,.6774,.0467,1.3548,.0934,2.0322,.1401-.5779,.8184-1.4036,1.4594-2.3397,1.8163l1.5926,.0516c-.3955,1.1712-1.4205,2.1084-2.6224,2.3977,.3423,.0046,.6846,.0093,1.027,.0139-1.1215,1.6182-2.243,3.2364-3.3646,4.8547-.3204,.4624-.6533,.9369-1.1269,1.2404-.3934,.2521-.8566,.368-1.3125,.4703-3.322,.7449-6.7602,.9687-10.1507,.6608-1.1598-.1053-2.3727-.2961-3.2943-1.0082s-1.4153-2.104-.781-3.0807"/>
          <path class="cls-3" d="M68.6195,58.6205c.073-1.3427,.2403-2.6802,.5003-3.9994,.6637,.7591,1.7901,.8542,2.7977,.8951l4.575,.186c.1778,1.0404,.3013,2.2636-.4504,3.0045-.3486,.3436-.8296,.5139-1.3012,.6451-1.0278,.2859-2.0937,.4349-3.1605,.4418-1.2657,.0081-2.7742-.3713-3.1793-1.5705l.412-.3384"/>
          <path class="cls-3" d="M81.3805,58.6205c-.073-1.3427-.2403-2.6802-.5003-3.9994-.6637,.7591-1.7902,.8542-2.7977,.8951l-4.575,.186c-.1778,1.0404-.3013,2.2636,.4504,3.0045,.3487,.3436,.8296,.5139,1.3012,.6451,1.0278,.2859,2.0937,.4349,3.1605,.4418,1.2657,.0081,2.7742-.3713,3.1793-1.5705l-.412-.3384"/>
        </g>
        <rect class="cls-5" x="45" y="84.8631" width="60" height="2"/>
        <rect class="cls-5" x="54.5114" y="96.9299" width="40" height="2"/>
        <g class="cls-6">
          <text class="cls-4" transform="translate(93.611 120.9463)"><tspan x="0" y="0"></tspan></text>
          <text class="cls-4" transform="translate(82.8464 120.9463)"><tspan x="0" y="0"></tspan></text>
          <text class="cls-4" transform="translate(60.5407 120.9463)"><tspan x="0" y="0"></tspan></text>
          <text class="cls-4" transform="translate(72.0768 120.9458)"><tspan x="0" y="0"></tspan></text>
          <text class="cls-4" transform="translate(50.5212 120.9458)"><tspan x="0" y="0"></tspan></text>
        </g>
        <path class="cls-3" d="M47.945,71.9097c0-8.8341,12.1129-15.9956,27.055-15.9956s27.055,7.1615,27.055,15.9956"/>
      </g>
    </g>
  </g>
</svg>