<?xml version="1.0" encoding="UTF-8"?>
<svg xmlns="http://www.w3.org/2000/svg" width="150" height="150" viewBox="0 0 150 150">
  <defs>
    <style>
      .cls-1 {
        opacity: .07;
      }

      .cls-2 {
        fill: #fff;
      }

      .cls-3 {
        fill: #fafafa;
      }

      .cls-4 {
        font-family: FontAwesome5Brands-Regular, Font Awesome 5 Brands;
        font-size: 6px;
      }

      .cls-4, .cls-5 {
        fill: #0085ba;
      }

      .cls-6, .cls-5 {
        opacity: .3;
      }
    </style>
  </defs>
  <g id="Layer_1" data-name="Layer 1"/>
  <g id="Layer_2" data-name="Layer 2">
    <g id="Layer_1-2" data-name="Layer 1">
      <g>
        <g class="cls-1">
          <rect width="150" height="150"/>
        </g>
        <rect class="cls-2" x="34.7206" y="20" width="80.5587" height="110"/>
        <g>
          <circle class="cls-5" cx="75" cy="49.9701" r="20" transform="translate(-13.3672 67.6689) rotate(-45)"/>
          <ellipse class="cls-3" cx="75" cy="46.6943" rx="7.7802" ry="10.0575"/>
          <path class="cls-3" d="M75,57.4989c-6.5079,0-12.2361,1.9889-15.5818,5.0037,3.6659,4.5521,9.2821,7.4676,15.5818,7.4676s11.9159-2.9154,15.5818-7.4676c-3.3457-3.0148-9.0739-5.0037-15.5818-5.0037Z"/>
          <rect class="cls-3" x="71.159" y="49.9701" width="7.6819" height="12.7012" rx="2.9724" ry="2.9724"/>
          <path class="cls-3" d="M68.2941,47.1609c.4529,1.3043,.2732,2.5516-.4015,2.7859s-1.5887-.6332-2.0417-1.9375c-.4529-1.3043-.2732-2.5516,.4015-2.7858s1.5887,.6332,2.0417,1.9375Z"/>
          <path class="cls-3" d="M81.7059,47.1609c-.4529,1.3043-.2732,2.5516,.4015,2.7859s1.5887-.6332,2.0417-1.9375c.4529-1.3043,.2732-2.5516-.4015-2.7858s-1.5887,.6332-2.0417,1.9375Z"/>
          <path class="cls-3" d="M68.191,47.1186c-1.0111-1.8389-2.0511-3.7901-1.9993-5.8879,.0519-2.0979,1.6491-4.3123,3.7462-4.2361,.3659,.0133,.7327,.0938,1.0952,.0422,.7254-.1033,1.2627-.6961,1.8511-1.1326,1.3269-.9844,3.1748-1.2179,4.7049-.5947,.9455,.3851,1.7461,1.0589,2.6682,1.4971,1.7183,.8166,3.8358,.7309,5.4825-.2219-.3434,.6462-.9248,1.1624-1.6071,1.4269,.6292,.2007,1.3262,.1813,1.9432-.0539-.372,.6737-.9872,1.2096-1.7055,1.4857l1.5974,.1101c-.4543,.6433-1.1033,1.1472-1.8392,1.4278l1.2519,.0406c-.3109,.9207-1.1167,1.6574-2.0614,1.8848l.8073,.011c-.8816,1.272-1.7632,2.5441-2.6448,3.8161-.2519,.3634-.5135,.7365-.8858,.9751-.3092,.1982-.6734,.2893-1.0318,.3697-2.6113,.5855-5.314,.7615-7.9792,.5194-.9117-.0828-1.8652-.2328-2.5896-.7925s-1.1126-1.6539-.6139-2.4217"/>
          <path class="cls-3" d="M69.9844,59.3992c.0573-1.0554,.1889-2.1068,.3933-3.1439,.5217,.5967,1.4072,.6714,2.1992,.7036l3.5963,.1462c.1397,.8178,.2368,1.7794-.3541,2.3618-.274,.2701-.6521,.404-1.0228,.5071-.808,.2248-1.6458,.3419-2.4844,.3473-.995,.0064-2.1807-.2919-2.4992-1.2346l.3239-.266"/>
          <path class="cls-3" d="M80.0156,59.3992c-.0573-1.0554-.1889-2.1068-.3933-3.1439-.5217,.5967-1.4072,.6714-2.1992,.7036l-3.5963,.1462c-.1397,.8178-.2368,1.7794,.3541,2.3618,.2741,.2701,.6521,.404,1.0228,.5071,.808,.2248,1.6458,.3419,2.4844,.3473,.995,.0064,2.1807-.2919,2.4992-1.2346l-.3239-.266"/>
        </g>
        <rect class="cls-5" x="45" y="79.86" width="60" height="2"/>
        <rect class="cls-5" x="54.5114" y="91.9268" width="40" height="2"/>
        <g class="cls-6">
          <text class="cls-4" transform="translate(93.611 120.9463)"><tspan x="0" y="0"></tspan></text>
          <text class="cls-4" transform="translate(82.8464 120.9463)"><tspan x="0" y="0"></tspan></text>
          <text class="cls-4" transform="translate(60.5407 120.9463)"><tspan x="0" y="0"></tspan></text>
          <text class="cls-4" transform="translate(72.0768 120.9458)"><tspan x="0" y="0"></tspan></text>
          <text class="cls-4" transform="translate(50.5212 120.9458)"><tspan x="0" y="0"></tspan></text>
        </g>
      </g>
    </g>
  </g>
</svg>