<?xml version="1.0" encoding="UTF-8"?>
<svg xmlns="http://www.w3.org/2000/svg" width="150" height="150" viewBox="0 0 150 150">
  <defs>
    <style>
      .cls-1 {
        opacity: .07;
      }

      .cls-2 {
        fill: #fff;
      }

      .cls-3 {
        fill: #fafafa;
      }

      .cls-4 {
        font-family: FontAwesome5Brands-Regular, Font Awesome 5 Brands;
        font-size: 6px;
      }

      .cls-4, .cls-5 {
        fill: #0085ba;
      }

      .cls-6, .cls-5 {
        opacity: .3;
      }
    </style>
  </defs>
  <g id="Layer_1" data-name="Layer 1"/>
  <g id="Layer_2" data-name="Layer 2">
    <g id="Layer_1-2" data-name="Layer 1">
      <g>
        <g class="cls-1">
          <rect width="150" height="150"/>
        </g>
        <rect class="cls-2" x="35" y="20" width="80" height="110"/>
        <rect class="cls-5" x="40" y="25.1198" width="70" height="47"/>
        <g>
          <ellipse class="cls-3" cx="75" cy="45.6193" rx="8.8408" ry="11.4285"/>
          <path class="cls-3" d="M75,57.8968c-7.3951,0-13.9042,2.26-17.7059,5.6858,4.1657,5.1727,10.5474,8.4856,17.7059,8.4856s13.5403-3.3129,17.706-8.4856c-3.8018-3.4258-10.3109-5.6858-17.706-5.6858Z"/>
          <rect class="cls-3" x="70.6354" y="49.3417" width="8.7291" height="14.4326" rx="3.3776" ry="3.3776"/>
          <path class="cls-3" d="M67.38,46.1495c.5147,1.4821,.3104,2.8994-.4562,3.1656s-1.8053-.7195-2.32-2.2016c-.5147-1.4821-.3104-2.8994,.4562-3.1656s1.8053,.7195,2.32,2.2016Z"/>
          <path class="cls-3" d="M82.62,46.1495c-.5147,1.4821-.3104,2.8994,.4562,3.1656s1.8053-.7195,2.32-2.2016c.5147-1.4821,.3104-2.8994-.4562-3.1656s-1.8053,.7195-2.32,2.2016Z"/>
          <path class="cls-3" d="M67.2627,46.1015c-1.149-2.0896-2.3307-4.3067-2.2718-6.6906,.059-2.3839,1.8739-4.9002,4.2569-4.8136,.4158,.0151,.8326,.1065,1.2445,.0479,.8243-.1174,1.4348-.791,2.1035-1.2871,1.5078-1.1185,3.6076-1.3839,5.3462-.6758,1.0744,.4376,1.9842,1.2032,3.032,1.7012,1.9525,.928,4.3588,.8306,6.2299-.2521-.3903,.7343-1.0509,1.3208-1.8262,1.6214,.7149,.228,1.5069,.2061,2.2081-.0613-.4227,.7655-1.1218,1.3745-1.938,1.6882,.6051,.0417,1.2101,.0834,1.8152,.1251-.5162,.731-1.2538,1.3036-2.0899,1.6224l1.4225,.0461c-.3533,1.0462-1.2689,1.8833-2.3425,2.1417,.3058,.0041,.6115,.0083,.9173,.0125-1.0018,1.4455-2.0036,2.8909-3.0053,4.3364-.2862,.413-.5835,.8369-1.0066,1.108-.3514,.2252-.7652,.3287-1.1724,.42-2.9673,.6653-6.0385,.8653-9.067,.5902-1.036-.0941-2.1194-.2645-2.9426-.9005s-1.2642-1.8793-.6976-2.7518"/>
          <path class="cls-3" d="M69.3007,60.0562c.0652-1.1993,.2146-2.3941,.4469-3.5724,.5929,.678,1.599,.763,2.499,.7996l4.0866,.1661c.1588,.9293,.2691,2.0219-.4023,2.6838-.3114,.3069-.741,.459-1.1623,.5762-.9181,.2554-1.8701,.3885-2.8231,.3946-1.1306,.0073-2.478-.3317-2.8399-1.4029l.368-.3023"/>
          <path class="cls-3" d="M80.6993,60.0562c-.0652-1.1993-.2146-2.3941-.4469-3.5724-.5929,.678-1.5991,.763-2.499,.7996l-4.0866,.1661c-.1588,.9293-.2691,2.0219,.4023,2.6838,.3114,.3069,.741,.459,1.1623,.5762,.9181,.2554,1.8701,.3885,2.8231,.3946,1.1306,.0073,2.478-.3317,2.8399-1.4029l-.368-.3023"/>
        </g>
        <rect class="cls-5" x="45" y="84.8631" width="60" height="2"/>
        <rect class="cls-5" x="54.5114" y="96.9299" width="40" height="2"/>
        <g class="cls-6">
          <text class="cls-4" transform="translate(93.611 120.9463)"><tspan x="0" y="0"></tspan></text>
          <text class="cls-4" transform="translate(82.8464 120.9463)"><tspan x="0" y="0"></tspan></text>
          <text class="cls-4" transform="translate(60.5407 120.9463)"><tspan x="0" y="0"></tspan></text>
          <text class="cls-4" transform="translate(72.0768 120.9458)"><tspan x="0" y="0"></tspan></text>
          <text class="cls-4" transform="translate(50.5212 120.9458)"><tspan x="0" y="0"></tspan></text>
        </g>
        <path class="cls-3" d="M50.8334,71.9266c0-7.891,10.8197-14.2879,24.1666-14.2879s24.1666,6.3969,24.1666,14.2879"/>
      </g>
    </g>
  </g>
</svg>